<?xml version="1.0" standalone="no"?>
<!DOCTYPE svg PUBLIC "-//W3C//DTD SVG 20010904//EN"
 "http://www.w3.org/TR/2001/REC-SVG-20010904/DTD/svg10.dtd">
<svg version="1.0" xmlns="http://www.w3.org/2000/svg"
 width="408.000000pt" height="108.000000pt" viewBox="0 0 408.000000 108.000000"
 preserveAspectRatio="xMidYMid meet">
<metadata>
Created by potrace 1.16, written by Peter Selinger 2001-2019
</metadata>
<g transform="translate(0.000000,108.000000) scale(0.100000,-0.100000)"
fill="#000000" stroke="none">
<path d="M412 763 l-322 -3 0 -145 0 -145 183 0 183 0 29 -30 c21 -22 38 -30
62 -30 38 0 41 9 12 36 -21 19 -20 19 97 24 l119 5 0 145 c0 138 -1 145 -20
145 -11 0 -165 -1 -343 -2z m316 -145 l3 -88 -124 0 c-119 0 -124 1 -147 25
-16 17 -34 25 -57 25 -37 0 -40 -6 -16 -32 16 -17 12 -18 -110 -18 l-127 0 0
90 0 90 288 -2 287 -3 3 -87z"/>
<path d="M867 764 c-4 -4 -7 -72 -7 -151 l0 -143 343 2 342 3 3 141 c2 120 0
143 -13 148 -39 15 -45 -2 -45 -120 l0 -114 -287 2 -288 3 -5 115 c-4 93 -8
115 -20 118 -9 1 -19 0 -23 -4z"/>
<path d="M1638 759 c-5 -4 -8 -15 -6 -25 3 -18 20 -19 346 -22 l342 -2 0 25 0
24 -336 3 c-185 2 -340 0 -346 -3z"/>
<path d="M2404 757 c-3 -8 -4 -47 -2 -88 l3 -74 310 -3 c170 -1 313 -6 318
-11 5 -5 6 -18 2 -30 -6 -21 -10 -21 -321 -21 l-315 0 3 -27 3 -28 343 -3 342
-2 0 90 0 90 -317 2 -318 3 0 25 0 25 482 3 482 2 3 -117 c3 -114 4 -118 26
-121 22 -3 22 -2 22 117 l0 121 179 0 c162 0 179 2 183 18 12 43 32 42 -713
42 -585 0 -711 -2 -715 -13z"/>
<path d="M1634 635 c-4 -8 -4 -22 0 -30 5 -13 43 -15 288 -13 l283 3 3 28 3
27 -286 0 c-245 0 -286 -2 -291 -15z"/>
<path d="M3614 637 c-3 -8 -4 -47 -2 -88 l3 -74 110 0 110 0 0 85 0 85 -108 3
c-84 2 -109 0 -113 -11z m206 -77 l0 -70 -95 0 -95 0 0 70 0 70 95 0 95 0 0
-70z"/>
<path d="M1632 503 l3 -28 343 -3 342 -2 0 30 0 30 -346 0 -345 0 3 -27z"/>
</g>
</svg>
